<?xml version="1.0" encoding="utf-8"?>
<!-- Generator: Adobe Illustrator 25.2.3, SVG Export Plug-In . SVG Version: 6.00 Build 0)  -->
<svg version="1.1" id="Lag_1" xmlns="http://www.w3.org/2000/svg" xmlns:xlink="http://www.w3.org/1999/xlink" x="0px" y="0px"
	 viewBox="0 0 512 512" style="enable-background:new 0 0 512 512;" xml:space="preserve">
<style type="text/css">
	.st0{fill:#FFFFFF;}
</style>
<g id="Outline">
	<path class="st0" d="M193,255.6c-0.2-5.3-0.4-10.6-0.6-15.9l-16,0.5c0.2,5.3,0.4,10.8,0.6,16.1L193,255.6z"/>
	<path class="st0" d="M187.3,361.2l15.8-2.4c-4.4-28.8-7.5-58.1-9.3-87.3l-16,1C179.7,302.1,182.8,332,187.3,361.2z"/>
	<path class="st0" d="M312,99.5V40c0-13.2-10.8-24-24-24h-64c-13.2,0-24,10.8-24,24v59.5c-29.6,18.4-49.6,48.9-54.7,83.3l15.8,2.4
		c4.5-30.5,22.5-57.4,49-73.2h91.7c30.9,18.6,49.9,51.9,50.2,88H128v16h16c0.2,55,4.9,109.9,13.9,164.2l18.2,109.1
		c0.6,3.9,4,6.7,7.9,6.7h144c3.9,0,7.2-2.8,7.9-6.7l18.2-109.1c9-54.3,13.7-109.2,13.9-164.2h16v-16h-16
		C367.8,159.1,346.6,121.2,312,99.5z M216,96V40c0-4.4,3.6-8,8-8h64c4.4,0,8,3.6,8,8v56H216z M338.3,377.6L321.2,480H190.8
		l-17.1-102.4c-8.9-53.4-13.5-107.4-13.7-161.6h192C351.8,270.1,347.2,324.2,338.3,377.6z"/>
	<path class="st0" d="M221.9,142.5l-9.3-13c-15.2,10.9-26.5,26.3-32.3,44l15.2,5C200.3,164,209.5,151.4,221.9,142.5z"/>
	<path class="st0" d="M443.2,417.6c0-0.5,0.1-1.1,0.1-1.6c0-5.1-2-10-5.7-13.7c-1.3-1.3-1.3-3.4,0-4.7c0,0,0,0,0,0
		c7.5-7.5,7.5-19.8,0-27.3c-1.3-1.3-1.3-3.4,0-4.7c0,0,0,0,0,0c7.5-7.5,7.5-19.8,0-27.3c-1.3-1.3-1.3-3.4,0-4.7c0,0,0,0,0,0
		c7.5-7.5,7.5-19.8,0-27.3c-1.3-1.3-1.3-3.4,0-4.7c0,0,0,0,0,0c7.5-7.5,7.5-19.8,0-27.3c-1.3-1.3-1.3-3.4,0-4.7c0,0,0,0,0,0
		c7.5-7.5,7.5-19.8,0-27.3c-1.3-1.3-1.3-3.4,0-4.7c0,0,0,0,0,0c7.5-7.5,7.5-19.8,0-27.3c-1.3-1.3-1.3-3.4,0-4.7c0,0,0,0,0,0
		c7.5-7.5,7.5-19.8,0-27.3c-1.3-1.3-1.3-3.4,0-4.7c0,0,0,0,0,0c7.5-7.5,7.5-19.8,0-27.3c-0.6-0.6-1-1.5-1-2.3H448
		c3.7,0,6.9-2.5,7.8-6.1l12.1-48.5c2.7-10.9,4.1-22.2,4.1-33.5c0-22.1-17.9-40-40-40s-40,17.9-40,40c0,11.3,1.4,22.5,4.1,33.5
		l12.1,48.5c0.9,3.6,4.1,6.1,7.8,6.1h4.7c0,5.1,2,10,5.7,13.7c1.3,1.3,1.3,3.4,0,4.7c0,0,0,0,0,0c-7.5,7.5-7.5,19.8,0,27.3
		c1.3,1.3,1.3,3.4,0,4.7c0,0,0,0,0,0c-7.5,7.5-7.5,19.8,0,27.3c1.3,1.3,1.3,3.4,0,4.7c0,0,0,0,0,0c-7.5,7.5-7.5,19.8,0,27.3
		c1.3,1.3,1.3,3.4,0,4.7c0,0,0,0,0,0c-7.5,7.5-7.5,19.8,0,27.3c1.3,1.3,1.3,3.4,0,4.7c0,0,0,0,0,0c-7.5,7.5-7.5,19.8,0,27.3
		c1.3,1.3,1.3,3.4,0,4.7c0,0,0,0,0,0c-7.5,7.5-7.5,19.8,0,27.3c1.3,1.3,1.3,3.4,0,4.7c0,0,0,0,0,0c-7.5,7.5-7.5,19.8,0,27.3
		c1.3,1.3,1.3,3.4,0,4.7c0,0,0,0,0,0c-7.5,7.5-7.5,19.8,0,27.3c0.6,0.6,1,1.5,1,2.3c0,0.1,0,0.2,0,0.3c-21.9,2.6-37.6,22.5-35,44.4
		s22.5,37.6,44.4,35s37.6-22.5,35-44.4C469.8,435.4,458.6,422.1,443.2,417.6L443.2,417.6z M411.6,85.6C409.2,75.9,408,66,408,56
		c0-13.3,10.7-24,24-24s24,10.7,24,24c0,10-1.2,19.9-3.6,29.6L441.8,128h-19.5L411.6,85.6z M432,480c-13.3,0-24-10.7-24-24
		c0-8.9,5-17.1,12.9-21.3c0.6,4.1,2.5,8,5.4,10.9c1.3,1.3,1.3,3.4,0,4.7c0,0,0,0,0,0l11.3,11.3c7.5-7.5,7.5-19.8,0-27.3
		c-0.5-0.5-0.8-1.2-0.9-1.9c13,2.6,21.4,15.3,18.8,28.3C453.3,471.9,443.4,480,432,480z"/>
	<path class="st0" d="M128,328c0-16.6-28.1-24-56-24s-56,7.4-56,24c0,2.2,0.5,4.4,1.5,6.3L39.6,408l-23.3,77.7
		c-1.3,4.2,1.1,8.7,5.4,10c0.7,0.2,1.5,0.3,2.3,0.3h96c4.4,0,8-3.6,8-8c0-0.8-0.1-1.6-0.3-2.3L104.4,408l22.1-73.7
		C127.5,332.4,128,330.2,128,328z M72,320c22.1,0,35.5,5,39.3,8c-3.8,3-17.2,8-39.3,8s-35.5-5-39.3-8C36.5,325,49.9,320,72,320z
		 M90,400H72v16h18l19.2,64H34.7l20.9-69.7c0.4-1.5,0.4-3.1,0-4.6l-17.4-57.9c9.8,2.9,21.8,4.2,33.7,4.2s23.9-1.4,33.7-4.2L90,400z"
		/>
</g>
</svg>
