<?xml version="1.0" encoding="utf-8"?>
<!-- Generator: Adobe Illustrator 25.2.3, SVG Export Plug-In . SVG Version: 6.00 Build 0)  -->
<svg version="1.1" id="Capa_1" xmlns="http://www.w3.org/2000/svg" xmlns:xlink="http://www.w3.org/1999/xlink" x="0px" y="0px"
	 viewBox="0 0 512 512" style="enable-background:new 0 0 512 512;" xml:space="preserve">
<style type="text/css">
	.st0{fill:#FFFFFF;}
</style>
<g>
	<g>
		<path class="st0" d="M489.2,115.6c-5-5.5-12.1-8.7-19.5-8.7H153.2L126,37.6c2.9-0.6,5.8-1.1,8.8-1.5c25.2-2.9,50,4.1,69.8,19.8
			c2.1,1.7,4.1,3.4,6.1,5.3l-23.1,29.2c-2.6,3.3-2,8.1,1.2,10.7c3.3,2.6,8.1,2,10.7-1.2l29.3-37c8.6-10.8,6.7-26.6-4.1-35.2
			C197.7,6.4,164-3.1,129.8,0.9c-34.2,4-64.8,21-86.1,48C-0.3,104.6,9.2,185.7,64.9,229.8c4.5,3.5,9.9,5,15.5,5.4
			c7.1,0.5,15.5-4.3,19.7-9.5l28.7-36.2l30.1,298.9c1.4,13.5,12.6,23.6,26.1,23.6h249.3c13.5,0,24.8-10.2,26.1-23.6l35.5-352.5
			C496.6,128.5,494.2,121.1,489.2,115.6z M81.5,219.9c-2.6,0.3-5.2-0.4-7.2-2.1C25.2,179,16.8,107.4,55.7,58.3
			c18.8-23.8,45.7-38.8,75.9-42.3c30.2-3.5,59.9,4.9,83.6,23.7c2.7,2.1,4,5.3,3.7,8.5c-1.6-1.4-3.2-2.8-4.9-4.1
			c-23.1-18.2-51.8-26.4-81-23c-29.2,3.4-55.3,18-73.5,41c-14.2,18-21.9,39.1-23.4,60.4c0,0.1,0,0.2,0,0.2c-0.1,0.4-0.1,0.9-0.1,1.3
			c-2,34.6,12.4,69.6,41.6,92.7c1.4,1.1,2.8,2.2,4.3,3.2C81.7,219.9,81.6,219.9,81.5,219.9z M126.2,168.1l-32.7,41.4
			c-2.2-1.5-4.4-3.1-6.5-4.7c-23-18.2-35.3-45.1-35.9-72.4l72.9,9.6l2.6,25.8C126.4,167.8,126.3,167.9,126.2,168.1z M130,115.6
			c-2.8,3.1-4.9,6.9-5.9,10.9l-72.2-9.5c2.2-16.1,8.7-31.9,19.5-45.6C82,58.1,95.8,48,111.3,42l26.6,67.7
			C135,111.1,132.2,113.1,130,115.6z M480.7,134.4l-35.5,352.5c-0.6,5.7-5.3,10-11,10H184.9c-5.7,0-10.4-4.3-11-10l-35.5-352.5
			c-0.3-3.1,0.7-6.2,2.8-8.5c2.1-2.3,5.1-3.6,8.2-3.6h320.2c3.1,0,6.1,1.3,8.2,3.6C480,128.2,481,131.3,480.7,134.4z"/>
	</g>
</g>
<g>
	<g>
		<path class="st0" d="M404.1,372.1c-4.2-0.4-7.9,2.6-8.3,6.8l-0.5,4.8c-0.4,4.2,2.6,7.8,6.8,8.3c6.2,0.8,7.9-2.9,8.3-6.8l0.5-4.8
			C411.3,376.3,408.3,372.6,404.1,372.1z"/>
	</g>
</g>
<g>
	<g>
		<path class="st0" d="M401.4,398.5c-4.2-0.4-7.9,2.6-8.3,6.8l-3.6,36.1c-0.4,4.2,2.6,7.9,6.8,8.3c0.3,0,0.5,0,0.8,0
			c3.9,0,7.2-2.9,7.6-6.8l3.6-36.1C408.7,402.6,405.6,398.9,401.4,398.5z"/>
	</g>
</g>
<g>
	<g>
		<path class="st0" d="M438.8,288.1c-0.5-6.1-3.1-12.1-7.8-16.7l-52.9-52.9c-5.1-5.1-11.8-7.8-19-7.8s-13.9,2.8-19,7.8l-10.6,10.6
			l-10.6-10.6c-5.1-5.1-11.8-7.8-19-7.8s-13.9,2.8-19,7.8l-3.9,3.9l-49.5-55.9c-3.8-4.3-9.2-6.9-14.9-7.3
			c-5.8-0.3-11.4,1.6-15.7,5.4c-18.7,16.6-31,39.3-34.5,64.1c-3.3,22.9,1,46.2,12.1,66.2c-1.8,3.6-2.5,7.7-2.1,11.8l15.5,153.9
			c1.1,11.1,10.4,19.6,21.6,19.6h200.3c11.2,0,20.5-8.4,21.6-19.6l15.5-153.9C447.5,300.6,445.8,291.8,438.8,288.1z M226.5,188.3
			l35.2,39.8L200,241.7c0.2-17.7,7.3-35.2,20.9-48.2C221,193.5,223.5,191,226.5,188.3z M254.1,245.3l-26.1,26.1
			c-3.3,3.3-5.5,7.2-6.8,11.4h-7.9c-5.9-7.9-9.8-16.7-11.8-25.9C201.7,256.9,254.1,245.3,254.1,245.3z M207,176
			c5-4.4,9.7,1.1,9.7,1.1c-1.3,1-2.6,2.1-3.9,3.2c-29.7,26.3-36.1,69.1-17.5,102.4c0,0-5.4-0.7-9.3,1.5
			C167.7,247.9,175.9,203.4,207,176z M416.2,459.1c-0.3,3.3-3.1,5.9-6.5,5.9H209.4c-3.4,0-6.2-2.5-6.5-5.9l-15.5-153.9
			c-0.2-1.8,0.4-3.7,1.7-5c1.2-1.4,3-2.1,4.8-2.1h27.3c1.2,4.2,3.5,8.1,6.8,11.4l10.2,10.2c1.5,1.5,6.1,4.3,10.8,0
			c3.1-2.8,3-7.8,0-10.8l-10.2-10.2c-4.5-4.5-4.5-11.9,0-16.5l52.9-52.9c2.2-2.2,5.1-3.4,8.2-3.4s6.1,1.2,8.2,3.4l10.6,10.6
			l-4.8,4.8c-3,3-3,7.8,0,10.8c3,3,7.8,3,10.8,0l26.2-26.2c2.2-2.2,5.1-3.4,8.2-3.4s6.1,1.2,8.2,3.4l52.9,52.9
			c2.2,2.2,3.4,5.1,3.4,8.2s-1.2,6.1-3.4,8.2l-52.9,52.9c-2.2,2.2-5.1,3.4-8.2,3.4s-6.1-1.2-8.2-3.4l-52.9-52.9
			c-2.2-2.2-3.4-5.1-3.4-8.2s1.2-6.1,3.4-8.2l11.6-11.6c3-3,3-7.8,0-10.8s-7.8-3-10.8,0l-11.6,11.6c-5.1,5.1-7.8,11.8-7.8,19
			c0,7.2,2.8,13.9,7.8,19l31.5,31.5l-10.6,10.6c-2.2,2.2-5.1,3.4-8.2,3.4s-6.1-1.2-8.2-3.4l-27.5-27.5c-3-3-7.8-3-10.8,0
			c-3,3-3,7.8,0,10.8l27.5,27.5c5.1,5.1,11.8,7.8,19,7.8c7.2,0,13.9-2.8,19-7.8l10.6-10.6l10.6,10.6c5.1,5.1,11.8,7.8,19,7.8
			s13.9-2.8,19-7.8l52.9-52.9c0.1-0.1,0.2-0.2,0.3-0.3L416.2,459.1z"/>
	</g>
</g>
</svg>
