<?xml version="1.0" encoding="utf-8"?>
<!-- Generator: Adobe Illustrator 25.2.3, SVG Export Plug-In . SVG Version: 6.00 Build 0)  -->
<svg version="1.1" id="Capa_1" xmlns="http://www.w3.org/2000/svg" xmlns:xlink="http://www.w3.org/1999/xlink" x="0px" y="0px"
	 viewBox="0 0 512 512" style="enable-background:new 0 0 512 512;" xml:space="preserve">
<style type="text/css">
	.st0{fill:#FFFFFF;}
</style>
<g>
	<g>
		<path class="st0" d="M217.3,414.8h-87.5c-4.1,0-7.4,3.3-7.4,7.4s3.3,7.4,7.4,7.4h87.5c4.1,0,7.4-3.3,7.4-7.4
			S221.4,414.8,217.3,414.8z"/>
	</g>
</g>
<g>
	<g>
		<path class="st0" d="M217.3,439.6h-87.5c-4.1,0-7.4,3.3-7.4,7.4s3.3,7.4,7.4,7.4h87.5c4.1,0,7.4-3.3,7.4-7.4
			S221.4,439.6,217.3,439.6z"/>
	</g>
</g>
<g>
	<g>
		<path class="st0" d="M252.8,321.6v-63.8c0,0,0,0,0-0.1v-52.6c3.6-2.8,5.8-7.1,5.8-11.6v-16c0-8.8-4.3-17.1-11.4-22.3l-35.4-25.7
			c-3.3-2.4-5.2-6.2-5.2-10.3V88.7c3.1-2.3,5.1-6.1,5.1-10.2V12.8c0-7.1-5.7-12.8-12.8-12.8h-50.6c-7.1,0-12.8,5.8-12.8,12.8v65.7
			c0,4.2,2,7.9,5.1,10.2v30.4c0,4.1-2,7.9-5.2,10.3l-35.4,25.7c-7.1,5.2-11.4,13.5-11.4,22.3v16c0,4.6,2.1,8.8,5.8,11.6v50.4
			c0,0,0,0,0,0v68.3c0,0,0,0,0,0v142.7c-3.6,2.8-5.8,7.1-5.8,11.6v12.2c0,11.8,9.6,21.5,21.5,21.5h127.1c11.8,0,21.5-9.6,21.5-21.5
			v-12.2c0-4.5-2.2-8.9-5.8-11.6L252.8,321.6C252.8,321.7,252.8,321.7,252.8,321.6z M150.3,14.9h46.6v13.5h-46.6V14.9z M150.3,43.2
			h46.6v33.3l-46.6,0V43.2z M191.7,91.3v20.4h-36.3V91.3H191.7z M237.1,497.1H110c-3.7,0-6.6-3-6.6-6.6v-12.1
			c3.6-2.8,5.8-7.1,5.8-11.6V334.1c8.8,27.7,34.3,46.6,63.8,46.6c30.1,0,56.2-19.8,64.4-48.5h0.7v134.6c0,4.5,2.2,8.9,5.8,11.6v12.1
			h0C243.7,494.2,240.8,497.1,237.1,497.1z M238,205.1v42.3h-0.7c-8.2-28.7-34.2-48.5-64.4-48.5c-6.5,0-12.9,0.9-19,2.7
			c-3.9,1.2-6.2,5.3-5,9.2c1.2,3.9,5.3,6.2,9.2,5c4.8-1.4,9.8-2.1,14.8-2.1c24.2,0,45,16.4,50.6,39.9c1.2,5.1,5.7,8.6,11,8.6h3.5
			v55.1h-3.5c-5.2,0-9.8,3.6-11,8.6c-5.6,23.5-26.4,39.9-50.6,39.9s-45-16.4-50.6-39.9c-1.2-5.1-5.7-8.6-11-8.6h-2.2v-55.1h2.2
			c5.2,0,9.8-3.6,11-8.6c1.8-7.4,5.2-14.4,10-20.4c2.6-3.2,2.1-7.9-1.1-10.4c-3.2-2.6-7.9-2.1-10.4,1.1c-5.1,6.4-9.1,13.8-11.5,21.6
			v-40.4c0-4.5-2.1-8.8-5.8-11.7v-15.9c0-4.1,2-7.9,5.2-10.3l35.4-25.7c5.1-3.7,8.7-9,10.3-14.9h38.4c1.7,5.9,5.3,11.2,10.3,14.9
			l35.4,25.7c3.3,2.4,5.2,6.2,5.2,10.3v15.9h0C240.1,196.2,238,200.5,238,205.1z"/>
	</g>
</g>
<g>
	<g>
		<path class="st0" d="M209.6,266.5c0-0.7-0.1-1.4-0.4-2.1c-5.1-15.8-19.7-26.4-36.4-26.4c-16.7,0-31.3,10.6-36.4,26.4
			c-0.2,0.7-0.3,1.4-0.4,2.1c-0.2,11.7-0.2,34.7,0,46.5c0,0.7,0.1,1.4,0.4,2.1c5.1,15.8,19.7,26.4,36.4,26.4
			c16.7,0,31.3-10.6,36.4-26.4c0.2-0.7,0.3-1.4,0.4-2.1C209.8,301.3,209.8,278.2,209.6,266.5z M194.8,311.5
			c-3.4,9.1-12,15.2-21.9,15.2c-9.8,0-18.5-6-21.9-15.2c-0.2-11.5-0.2-32.1,0-43.6c3.4-9.1,12-15.2,21.9-15.2
			c9.8,0,18.5,6,21.9,15.2C195,279.5,195,300.1,194.8,311.5z"/>
	</g>
</g>
<g>
	<g>
		<path class="st0" d="M407.5,495.1c-0.3-0.2-0.6-0.4-0.9-0.5c-13.2-6.1-29.1-13-38.9-16.1v-45.7c0.7-0.3,1.4-0.7,2-1.1l22.6-13.8
			c24.7-15.1,36.3-44,29-72l-15-57.4c-1.2-4.7-5.4-7.9-10.2-7.9h-71.7c-4.8,0-9,3.3-10.2,7.9l-15,57.4c-7.3,28,4.4,56.9,29,72
			l22.6,13.8c0.7,0.4,1.3,0.7,2,1.1v45.7c-9.8,3.1-25.7,10-38.9,16.1c-0.3,0.1-0.6,0.3-0.9,0.5c-3.4,2.2-4.9,6.5-3.7,10.6
			c1.1,3.8,4.4,6.3,8.1,6.3h85.7c3.8,0,7-2.5,8.1-6.3C412.4,501.6,410.9,497.3,407.5,495.1z M335.9,405.2c-19-11.6-28-34-22.4-55.6
			l3.1-12h39.1c4.1,0,7.4-3.3,7.4-7.4s-3.3-7.4-7.4-7.4h-35.2l7.2-27.4h65.1l7.2,27.4h-9.6c-4.1,0-7.4,3.3-7.4,7.4s3.3,7.4,7.4,7.4
			h13.5l3.1,12c5.6,21.6-3.4,43.9-22.4,55.6L361.9,419c-1,0.6-2.3,0.6-3.4,0L335.9,405.2z M345.3,497.1c7.1-2.9,12.7-5,14.9-5.3
			c2.2,0.4,7.9,2.5,14.9,5.3H345.3z"/>
	</g>
</g>
</svg>
