<?xml version="1.0" encoding="utf-8"?>
<!-- Generator: Adobe Illustrator 25.2.3, SVG Export Plug-In . SVG Version: 6.00 Build 0)  -->
<svg version="1.1" id="Lag_1" xmlns="http://www.w3.org/2000/svg" xmlns:xlink="http://www.w3.org/1999/xlink" x="0px" y="0px"
	 viewBox="0 0 480 480" style="enable-background:new 0 0 480 480;" xml:space="preserve">
<style type="text/css">
	.st0{fill:#FFFFFF;}
</style>
<path class="st0" d="M160,280c8.8,0,16,7.2,16,16c0,4.4,3.6,8,8,8s8-3.6,8-8c-0.1-14.5-9.9-27.2-24-30.9V256c0-4.4-3.6-8-8-8
	s-8,3.6-8,8v9.1c-15.6,4-25.7,19-23.7,35c2,16,15.6,27.9,31.7,27.9c8.8,0,16,7.2,16,16c0,8.8-7.2,16-16,16c-8.8,0-16-7.2-16-16
	c0-4.4-3.6-8-8-8s-8,3.6-8,8c0.1,14.5,9.9,27.2,24,30.9v9.1c0,4.4,3.6,8,8,8s8-3.6,8-8v-9.1c15.6-4,25.9-19,23.8-35
	c-2-16-15.7-28-31.8-27.9c-8.8,0-16-7.2-16-16C144,287.2,151.2,280,160,280z"/>
<path class="st0" d="M184,200h-48c-4.4,0-8,3.6-8,8c0,4.4,3.6,8,8,8h48c4.4,0,8-3.6,8-8C192,203.6,188.4,200,184,200z"/>
<path class="st0" d="M184,424h-48c-4.4,0-8,3.6-8,8c0,4.4,3.6,8,8,8h48c4.4,0,8-3.6,8-8C192,427.6,188.4,424,184,424z"/>
<path class="st0" d="M438.3,308L320.9,104.6c7.2-7.2,13.6-15.1,19.1-23.7c13.3-21.6,15.7-42.1,6.7-57.7
	c-17.9-31.1-74.6-30.8-129,0.6c-7.2,4.2-14.2,8.9-20.8,14l-6.5-7.3c-7.7-8.7-18.8-13.7-30.4-13.7c-11.6,0-22.7,5-30.4,13.7
	l-87.5,99.1c-6.5,7.4-10.1,16.9-10.1,26.8V408c0,39.7,32.3,72,72,72h112c39.7,0,72-32.3,72-72V156.3c0-7.7-2.2-15.2-6.4-21.7h0.1
	c9.6-5.5,18.6-11.9,27.1-18.9L424.5,316c15.5,26.8,6.3,61-20.5,76.5l-97,56c-4.3,2.4-8.8,4.3-13.6,5.5c-4.3,1.1-6.8,5.5-5.7,9.8
	c1.1,4.3,5.5,6.8,9.8,5.7c6.1-1.6,12-4,17.4-7.1l97-56C446.4,386.5,458.2,342.5,438.3,308z M272,408c0,30.9-25.1,56-56,56H104
	c-30.9,0-56-25.1-56-56V156.3c0-6,2.2-11.8,6.1-16.2L141.6,41c4.7-5.3,11.4-8.3,18.4-8.3c7,0,13.7,3,18.4,8.3l78,88.4
	c-17.8,8.4-37.3,12.7-57,12.7c0.4-2,0.6-4,0.6-6.1c0-22.1-17.9-40-40-40c-0.9,0-1.7,0.2-2.6,0.5c-4-0.5-7.8,2.1-8.7,6.1
	c-2.8,10.9-1.4,22.5,3.9,32.5c5.3,8.8,13.6,15.4,23.3,18.7c-7,6.4-17.1,8-25.8,4.2c-8.7-3.9-14.2-12.5-14.2-22c0-4.4-3.6-8-8-8
	c-4.4,0-8,3.6-8,8c0,17.7,11.7,33.4,28.7,38.4c17,5,35.3-1.8,44.9-16.7c3.1,0.3,6.3,0.5,9.5,0.5c22.3-0.7,44.3-6.2,64.2-16.2
	c3.1,4.2,4.7,9.2,4.7,14.3V408z M184,136c0,1.2-0.1,2.3-0.4,3.5c-7.1-1.8-13.2-6.3-17.1-12.4c-2.5-4.5-3.5-9.6-3-14.8
	C175.2,114.1,184,124.1,184,136z M273.7,120.7c-0.8,0.5-1.6,0.9-2.4,1.3l-63.8-72.3c5.8-4.4,11.9-8.4,18.2-12.1
	c45.1-26,94.1-29,107.1-6.4c5.9,10.3,3.6,25-6.5,41.3c-4,6.3-8.6,12.3-13.8,17.7l-0.1-0.1c-4.9-8.6-12.8-15-22.2-18.2L259,61.4
	c-4.1-1.3-8.5,1-9.9,5.1c-1.4,4.1,0.8,8.6,4.8,10.1l31.3,10.5c5.7,1.9,10.4,5.8,13.4,11l2,3.5C292.3,108.8,283.2,115.2,273.7,120.7
	L273.7,120.7z"/>
<path class="st0" d="M305.1,322.5c2.2,3.8,7.1,5.1,10.9,2.9l55.4-32c2.5-1.4,4-4.1,4-6.9c0-2.9-1.5-5.5-4-7c-2.5-1.4-5.6-1.4-8,0
	l-55.4,32C304.2,313.7,302.9,318.6,305.1,322.5z"/>
<path class="st0" d="M315.2,372c2.2,3.8,7.1,5.1,10.9,2.9l69.3-40c3.8-2.2,5.1-7.1,2.9-10.9c-2.2-3.8-7.1-5.1-10.9-2.9l-69.3,40
	C314.3,363.3,313,368.2,315.2,372z"/>
<path class="st0" d="M319.7,275.8c1.4,0,2.8-0.4,4-1.1l27.7-16c2.5-1.4,4-4.1,4-6.9c0-2.9-1.5-5.5-4-7c-2.5-1.4-5.6-1.4-8,0
	l-27.7,16c-3.1,1.8-4.7,5.5-3.7,9C312.9,273.4,316.1,275.8,319.7,275.8z"/>
</svg>
