<?xml version="1.0" encoding="utf-8"?>
<!-- Generator: Adobe Illustrator 25.2.3, SVG Export Plug-In . SVG Version: 6.00 Build 0)  -->
<svg version="1.1" id="Layer_1" xmlns="http://www.w3.org/2000/svg" xmlns:xlink="http://www.w3.org/1999/xlink" x="0px" y="0px"
	 viewBox="0 0 512 512" style="enable-background:new 0 0 512 512;" xml:space="preserve">
<g id="Outline_1_">
	<path d="M192.3,256.8c-0.2-5.4-0.4-10.8-0.6-16.1l-16.2,0.5c0.2,5.4,0.4,10.9,0.6,16.3L192.3,256.8z"/>
	<path d="M186.6,363.8l16-2.4c-4.4-29.1-7.6-58.9-9.4-88.4l-16.2,1C178.8,303.9,182,334.2,186.6,363.8z"/>
	<path d="M312.9,98.6V38.4c0-13.4-10.9-24.3-24.3-24.3h-64.8c-13.4,0-24.3,10.9-24.3,24.3v60.3c-30,18.6-50.3,49.5-55.4,84.4l16,2.4
		c4.6-30.9,22.8-58.2,49.7-74.1h92.9c31.3,18.8,50.6,52.6,50.8,89.2H126.5v16.2h16.2c0.2,55.7,4.9,111.4,14.1,166.3l18.4,110.6
		c0.7,3.9,4,6.8,8,6.8h145.9c4,0,7.3-2.9,8-6.8L355.5,383c9.1-55,13.9-110.6,14.1-166.3h16.2v-16.2h-16.2
		C369.4,159,348,120.6,312.9,98.6z M215.6,95.1V38.4c0-4.5,3.6-8.1,8.1-8.1h64.8c4.5,0,8.1,3.6,8.1,8.1v56.7H215.6z M339.5,380.4
		l-17.3,103.8H190.1l-17.3-103.8c-9-54.1-13.6-108.8-13.9-163.7h194.5C353.2,271.5,348.5,326.3,339.5,380.4z"/>
	<path d="M221.6,142.2l-9.4-13.2c-15.4,11-26.9,26.6-32.8,44.6l15.4,5C199.7,164,209.1,151.2,221.6,142.2z"/>
	<path d="M445.9,420.9c0-0.5,0.1-1.1,0.1-1.6c0-5.2-2-10.2-5.7-13.8c-1.3-1.3-1.3-3.4,0-4.7c0,0,0,0,0,0c7.6-7.6,7.6-20,0-27.7
		c-1.3-1.3-1.3-3.4,0-4.7c0,0,0,0,0,0c7.6-7.6,7.6-20,0-27.7c-1.3-1.3-1.3-3.4,0-4.7c0,0,0,0,0,0c7.6-7.6,7.6-20,0-27.7
		c-1.3-1.3-1.3-3.4,0-4.7c0,0,0,0,0,0c7.6-7.6,7.6-20,0-27.7c-1.3-1.3-1.3-3.4,0-4.7c0,0,0,0,0,0c7.6-7.6,7.6-20,0-27.7
		c-1.3-1.3-1.3-3.4,0-4.7c0,0,0,0,0,0c7.6-7.6,7.6-20,0-27.7c-1.3-1.3-1.3-3.4,0-4.7c0,0,0,0,0,0c7.6-7.6,7.6-20,0-27.7
		c-1.3-1.3-1.3-3.4,0-4.7c0,0,0,0,0,0c7.6-7.6,7.6-20,0-27.7c-0.6-0.6-1-1.5-1-2.4h11.5c3.7,0,7-2.5,7.9-6.1l12.3-49.1
		c2.8-11.1,4.2-22.5,4.2-33.9c0-22.4-18.1-40.5-40.5-40.5c-22.4,0-40.5,18.1-40.5,40.5c0,11.4,1.4,22.8,4.2,33.9l12.3,49.1
		c0.9,3.6,4.1,6.1,7.9,6.1h4.7c0,5.2,2,10.2,5.7,13.8c1.3,1.3,1.3,3.4,0,4.7c0,0,0,0,0,0c-7.6,7.6-7.6,20,0,27.7
		c1.3,1.3,1.3,3.4,0,4.7c0,0,0,0,0,0c-7.6,7.6-7.6,20,0,27.7c1.3,1.3,1.3,3.4,0,4.7c0,0,0,0,0,0c-7.6,7.6-7.6,20,0,27.7
		c1.3,1.3,1.3,3.4,0,4.7c0,0,0,0,0,0c-7.6,7.6-7.6,20,0,27.7c1.3,1.3,1.3,3.4,0,4.7c0,0,0,0,0,0c-7.6,7.6-7.6,20,0,27.7
		c1.3,1.3,1.3,3.4,0,4.7c0,0,0,0,0,0c-7.6,7.6-7.6,20,0,27.7c1.3,1.3,1.3,3.4,0,4.7c0,0,0,0,0,0c-7.6,7.6-7.6,20,0,27.7
		c1.3,1.3,1.3,3.4,0,4.7c0,0,0,0,0,0c-7.6,7.6-7.6,20,0,27.7c0.6,0.6,1,1.5,1,2.4c0,0.1,0,0.2,0,0.3c-22.2,2.6-38.1,22.8-35.5,45
		c2.6,22.2,22.8,38.1,45,35.5c22.2-2.6,38.1-22.8,35.5-45C472.8,438.9,461.4,425.5,445.9,420.9L445.9,420.9z M413.8,84.5
		c-2.4-9.8-3.7-19.9-3.7-30c0-13.4,10.9-24.3,24.3-24.3c13.4,0,24.3,10.9,24.3,24.3c0,10.1-1.2,20.2-3.7,30l-10.7,43h-19.8
		L413.8,84.5z M434.5,484.1c-13.4,0-24.3-10.9-24.3-24.3c0-9.1,5-17.4,13.1-21.6c0.6,4.2,2.5,8.1,5.5,11.1c1.3,1.3,1.3,3.4,0,4.7
		c0,0,0,0,0,0l11.5,11.5c7.6-7.6,7.6-20,0-27.7c-0.5-0.5-0.8-1.2-0.9-1.9c13.2,2.6,21.7,15.5,19.1,28.6
		C456,476,446.1,484.1,434.5,484.1z"/>
	<path d="M126.5,330.1c0-16.8-28.5-24.3-56.7-24.3S13,313.3,13,330.1c0,2.2,0.5,4.4,1.6,6.4L37,411.2l-23.6,78.7
		c-1.3,4.3,1.1,8.8,5.4,10.1c0.8,0.2,1.5,0.3,2.3,0.3h97.3c4.5,0,8.1-3.6,8.1-8.1c0-0.8-0.1-1.6-0.3-2.3l-23.6-78.7l22.4-74.6
		C125.9,334.6,126.5,332.4,126.5,330.1z M69.7,322c22.4,0,36,5.1,39.8,8.1c-3.8,3-17.4,8.1-39.8,8.1s-36-5.1-39.8-8.1
		C33.8,327.1,47.3,322,69.7,322z M88,403.1H69.7v16.2H88l19.5,64.8H32l21.2-70.6c0.5-1.5,0.5-3.1,0-4.7l-17.6-58.7
		c9.9,2.9,22.1,4.3,34.2,4.3s24.2-1.4,34.2-4.3L88,403.1z"/>
</g>
</svg>
