<?xml version="1.0"?>
<svg xmlns="http://www.w3.org/2000/svg" viewBox="0 0 512 512" width="512" height="512"><g id="Outline"><path d="M192.983,255.641c-.237-5.287-.434-10.626-.584-15.87l-15.993.458c.153,5.331.352,10.757.594,16.13Z"/><path d="M187.3,361.2l15.818-2.406c-4.377-28.768-7.5-58.135-9.289-87.286l-15.97.978C179.673,302.117,182.849,331.965,187.3,361.2Z"/><path d="M312,99.476V40a24.027,24.027,0,0,0-24-24H224a24.027,24.027,0,0,0-24,24V99.474a118.394,118.394,0,0,0-54.683,83.339l15.824,2.374A102.509,102.509,0,0,1,210.166,112h91.667a103.372,103.372,0,0,1,50.159,88H128v16h16.021a1026.346,1026.346,0,0,0,13.9,164.189l18.188,109.126A8,8,0,0,0,184,496H328a8,8,0,0,0,7.891-6.685l18.188-109.126A1026.346,1026.346,0,0,0,367.979,216H384V200H367.992A119.414,119.414,0,0,0,312,99.476ZM216,96V40a8.009,8.009,0,0,1,8-8h64a8.009,8.009,0,0,1,8,8V96ZM338.3,377.559,321.223,480H190.777L173.7,377.559A1010.285,1010.285,0,0,1,160.008,216H351.992A1010.285,1010.285,0,0,1,338.3,377.559Z"/><path d="M221.922,142.518l-9.279-13.036A87.923,87.923,0,0,0,180.3,173.516l15.209,4.968A71.81,71.81,0,0,1,221.922,142.518Z"/><path d="M443.235,417.617c.044-.535.079-1.073.079-1.617a19.186,19.186,0,0,0-5.657-13.657,3.312,3.312,0,0,1,0-4.686,19.314,19.314,0,0,0,0-27.314,3.312,3.312,0,0,1,0-4.686,19.314,19.314,0,0,0,0-27.314,3.312,3.312,0,0,1,0-4.686,19.314,19.314,0,0,0,0-27.314,3.312,3.312,0,0,1,0-4.686,19.314,19.314,0,0,0,0-27.314,3.312,3.312,0,0,1,0-4.686,19.314,19.314,0,0,0,0-27.314,3.312,3.312,0,0,1,0-4.686,19.314,19.314,0,0,0,0-27.314,3.312,3.312,0,0,1,0-4.686,19.314,19.314,0,0,0,0-27.314,3.312,3.312,0,0,1,0-4.686,19.314,19.314,0,0,0,0-27.314,3.3,3.3,0,0,1-.971-2.343H448a8,8,0,0,0,7.761-6.06l12.12-48.477A138.13,138.13,0,0,0,472,56a40,40,0,0,0-80,0,138.13,138.13,0,0,0,4.119,33.463l12.12,48.477A8,8,0,0,0,416,144h4.686a19.186,19.186,0,0,0,5.657,13.657,3.312,3.312,0,0,1,0,4.686,19.314,19.314,0,0,0,0,27.314,3.312,3.312,0,0,1,0,4.686,19.314,19.314,0,0,0,0,27.314,3.312,3.312,0,0,1,0,4.686,19.314,19.314,0,0,0,0,27.314,3.312,3.312,0,0,1,0,4.686,19.314,19.314,0,0,0,0,27.314,3.312,3.312,0,0,1,0,4.686,19.314,19.314,0,0,0,0,27.314,3.312,3.312,0,0,1,0,4.686,19.314,19.314,0,0,0,0,27.314,3.312,3.312,0,0,1,0,4.686,19.314,19.314,0,0,0,0,27.314,3.312,3.312,0,0,1,0,4.686,19.314,19.314,0,0,0,0,27.314,3.3,3.3,0,0,1,.971,2.343c0,.083-.006.181-.015.285a40,40,0,1,0,15.936,1.332ZM411.642,85.582A122.057,122.057,0,0,1,408,56a24,24,0,0,1,48,0,122.057,122.057,0,0,1-3.642,29.582L441.754,128H422.246ZM432,480a23.993,23.993,0,0,1-11.1-45.268,19.152,19.152,0,0,0,5.443,10.925,3.312,3.312,0,0,1,0,4.686l11.314,11.314a19.314,19.314,0,0,0,0-27.314,3.27,3.27,0,0,1-.937-1.874A24,24,0,0,1,432,480Z"/><path d="M128,328c0-16.579-28.126-24-56-24s-56,7.421-56,24a13.717,13.717,0,0,0,1.549,6.338L39.648,408,16.337,485.7A8,8,0,0,0,24,496h96a8,8,0,0,0,7.663-10.3L104.352,408l22.1-73.662A13.717,13.717,0,0,0,128,328Zm-56-8c22.112,0,35.518,5.043,39.274,8-3.756,2.957-17.162,8-39.274,8s-35.518-5.043-39.274-8C36.482,325.043,49.888,320,72,320Zm18.048,80H72v16H90.048l19.2,64h-74.5l20.911-69.7a8.016,8.016,0,0,0,0-4.6L38.285,347.775C48.086,350.634,60.062,352,72,352s23.914-1.366,33.715-4.225Z"/></g></svg>
