<?xml version="1.0" encoding="utf-8"?>
<!-- Generator: Adobe Illustrator 25.2.3, SVG Export Plug-In . SVG Version: 6.00 Build 0)  -->
<svg version="1.1" id="Layer_1" xmlns="http://www.w3.org/2000/svg" xmlns:xlink="http://www.w3.org/1999/xlink" x="0px" y="0px"
	 viewBox="0 0 512 512" style="enable-background:new 0 0 512 512;" xml:space="preserve">
<style type="text/css">
	.st0{fill:#FFFFFF;}
</style>
<path class="st0" d="M202.1,150.1c-2,0.8-3.9,1.7-5.8,2.7c-3,1.4-4.2,5-2.8,8s5,4.2,8,2.8l0,0c1.7-0.8,3.5-1.7,5.3-2.4
	c3-1.3,4.4-4.8,3.1-7.9C208.7,150.2,205.1,148.8,202.1,150.1L202.1,150.1z"/>
<path class="st0" d="M179.1,162.6c-14.8,9.8-27.5,22.4-37.4,37.2c-1.9,2.7-1.1,6.5,1.6,8.3c2.7,1.9,6.5,1.1,8.3-1.6c0,0,0,0,0,0
	c9.1-13.4,20.7-24.9,34.1-33.9c2.8-1.8,3.5-5.6,1.7-8.3S181.9,160.8,179.1,162.6L179.1,162.6z"/>
<path class="st0" d="M69.8,471.8c0,9.8,7.9,17.7,17.7,17.7s17.7-7.9,17.7-17.7c0-9.8-7.9-17.7-17.7-17.7c0,0,0,0,0,0
	C77.7,454.1,69.8,462,69.8,471.8z M93.2,471.8c0,3.2-2.6,5.7-5.7,5.7s-5.7-2.6-5.7-5.7s2.6-5.7,5.7-5.7c0,0,0,0,0,0
	C90.6,466.1,93.2,468.6,93.2,471.8z"/>
<path class="st0" d="M475.4,242h-12.6C444.5,162.1,373,102.9,287,94.2V74c9.6-7.2,15.2-18.4,15.3-30.4c0-20.7-16.8-37.5-37.5-37.5
	s-37.5,16.8-37.5,37.5c0,12.5,5.7,23.5,15.7,30.4v20.2C156,102.9,84.6,162.1,66.3,242H54.1c-12.2,0-22.7,9.6-23,21.8
	c-0.4,12.4,9.4,22.8,21.9,23.2c0.2,0,0.5,0,0.7,0h1.2l3.9,21.1C61,320.2,71.6,329,83.9,329h68.2c-7.1,2.9-13.7,6.6-19.8,11.2
	c-0.1,0.1-0.3,0.2-0.4,0.3l-12.1,10.8c-4.5,4-9.9,7-15.7,8.7l-0.2-0.9c-1.3-4.2-5.1-7.1-9.5-7.2H23.9c-5.6,0.1-10.1,4.7-10,10.4
	c0,0.8,0.1,1.7,0.4,2.5l37.2,133.7c1.2,4.3,5.1,7.4,9.6,7.4h74.5c5.6-0.1,10.1-4.6,10-10.2c0-1-0.2-1.9-0.4-2.8l-9.9-32.4l35.6-22.5
	c4.7-2.6,10.2-3.3,15.4-2c0.1,0,0.2,0.1,0.4,0.1l73.2,13.5c3.3,0.6,6.7,1,10,1.3c20.9,1.4,41.6-4.4,58.8-16.3l117.4-80.6
	c2.6-1.8,3.4-5.3,1.7-8c-5.7-9.4-15.4-15.7-26.3-16.9h22.9c12.1,0,22.5-8.5,25-20.3l4.5-21.7h0.9c12.2,0,22.7-9.6,23-21.8
	c0.4-12.4-9.4-22.8-21.9-23.2C475.9,242,475.7,242,475.4,242z M239.1,43.6c0-14.1,11.4-25.5,25.5-25.5c14.1,0,25.5,11.4,25.5,25.5
	s-11.4,25.5-25.5,25.5c0,0,0,0,0,0C250.5,69.1,239.1,57.7,239.1,43.6z M275,79.8v13.6c-4-0.1-6.7-0.2-10-0.2s-7,0.1-10,0.2V79.8
	c3.3,0.9,6.6,1.4,10,1.3C268.4,81.1,271.7,80.6,275,79.8z M264.6,105.1c89.3,0,166.2,57.1,185.9,136.9H78.7
	C98.3,162.3,175.3,105.1,264.6,105.1z M62.7,494L26.6,364H93l40,130H62.7z M434.2,347.6l-112.2,77c-14.9,10.4-32.9,15.4-51.1,14.2
	c-2.9-0.2-5.9-0.6-8.8-1.1l-73-13.4c-8.2-2-16.8-0.8-24.1,3.3c-0.1,0.1-0.2,0.1-0.3,0.2l-33,20.9l-24-77.2
	c7.4-2.2,14.3-6.1,20.1-11.2l11.9-10.6c22.4-16.8,52.4-19.7,77.6-7.5l5,2.4c8.7,4.2,18.2,6.4,27.8,6.4h48.7
	c14.2,0,26.6,10,29.5,23.9l-34.6-1.6c-12.9-0.6-25.8,0-38.5,1.8c-3.3,0.5-5.6,3.5-5.1,6.8s3.5,5.6,6.8,5.1l0,0
	c12-1.7,24.2-2.2,36.3-1.7l41.5,1.9c0.1,0,0.2,0,0.3,0c3.3,0,6-2.7,6-6c0-0.8,0-1.5-0.1-2.3l65.6-35.3
	C415.7,338.7,426.9,340.3,434.2,347.6z M217.2,329H305l-18.4,10h-36.4c-7.8,0-15.5-1.8-22.6-5.2l-5-2.4
	C220.8,330.5,219,329.7,217.2,329z M323.4,346.9c-4.3-3.1-9-5.3-14.1-6.6l10.4-5.6c0,0,0.1-0.1,0.1-0.1c8-4.6,18.1-4.4,26.4,0
	L323.4,346.9z M368.9,336c6.2-3.1,14-0.7,19.2,3.9l-49.6,26.7c-1.5-3.9-3.5-7.7-6.1-11L368.9,336z M393.8,329h19.9
	c-4.5,0.5-8.8,1.9-12.8,4l-1.8,1C397.6,332.1,395.8,330.5,393.8,329z M475.4,275H156c-3.3,0-6,2.7-6,6s2.7,6,6,6h305.9l-4,19.2
	c-1.3,6.3-6.9,10.8-13.3,10.8H83.9c-6.5,0-12.1-4.6-13.3-11.1L67.1,287H122c3.3,0,6-2.7,6-6s-2.7-6-6-6H53.9
	c-5.9,0.1-10.7-4.6-10.8-10.4c0-5.8,4.7-10.5,10.5-10.6c0,0,0.1,0,0.1,0h421.5c5.9-0.1,10.7,4.6,10.8,10.4c0,5.8-4.7,10.5-10.5,10.6
	C475.5,275,475.5,275,475.4,275z"/>
</svg>
