<?xml version="1.0" standalone="no"?><svg xmlns="http://www.w3.org/2000/svg" viewBox="0 0 1440 320"><path fill="#9FB4A7" fill-opacity="1" d="M0,320L21.8,277.3C43.6,235,87,149,131,112C174.5,75,218,85,262,122.7C305.5,160,349,224,393,218.7C436.4,213,480,139,524,144C567.3,149,611,235,655,266.7C698.2,299,742,277,785,261.3C829.1,245,873,235,916,202.7C960,171,1004,117,1047,96C1090.9,75,1135,85,1178,112C1221.8,139,1265,181,1309,192C1352.7,203,1396,181,1418,170.7L1440,160L1440,0L1418.2,0C1396.4,0,1353,0,1309,0C1265.5,0,1222,0,1178,0C1134.5,0,1091,0,1047,0C1003.6,0,960,0,916,0C872.7,0,829,0,785,0C741.8,0,698,0,655,0C610.9,0,567,0,524,0C480,0,436,0,393,0C349.1,0,305,0,262,0C218.2,0,175,0,131,0C87.3,0,44,0,22,0L0,0Z"></path></svg>