<?xml version="1.0" standalone="no"?><svg xmlns="http://www.w3.org/2000/svg" viewBox="0 0 1440 320"><path fill="#9FB4A7" fill-opacity="1" d="M0,288L34.3,256C68.6,224,137,160,206,144C274.3,128,343,160,411,149.3C480,139,549,85,617,74.7C685.7,64,754,96,823,112C891.4,128,960,128,1029,144C1097.1,160,1166,192,1234,218.7C1302.9,245,1371,267,1406,277.3L1440,288L1440,0L1405.7,0C1371.4,0,1303,0,1234,0C1165.7,0,1097,0,1029,0C960,0,891,0,823,0C754.3,0,686,0,617,0C548.6,0,480,0,411,0C342.9,0,274,0,206,0C137.1,0,69,0,34,0L0,0Z"></path></svg>